<svg width="46" height="46" viewBox="0 0 46 46" fill="none" xmlns="http://www.w3.org/2000/svg">
<g clip-path="url(#clip0_3_15)">
<g filter="url(#filter0_d_3_15)">
<path fill-rule="evenodd" clip-rule="evenodd" d="M7.20667 39.2533H39.2533C39.6397 39.2533 40.0102 39.4068 40.2834 39.68C40.5565 39.9532 40.71 40.3237 40.71 40.71C40.71 41.0963 40.5565 41.4668 40.2834 41.74C40.0102 42.0132 39.6397 42.1667 39.2533 42.1667H7.20667V39.2533ZM37.7967 5.75V20.3167C37.7967 20.703 37.9501 21.0735 38.2233 21.3467C38.4965 21.6199 38.867 21.7733 39.2533 21.7733C39.6397 21.7733 40.0102 21.6199 40.2834 21.3467C40.5565 21.0735 40.71 20.703 40.71 20.3167V8.66333C40.71 7.05333 39.4067 5.75 37.7967 5.75Z" fill="white"/>
</g>
<g filter="url(#filter1_d_3_15)">
<path fill-rule="evenodd" clip-rule="evenodd" d="M37.7966 5.75H29.0566C28.6703 5.75 28.2998 5.90347 28.0266 6.17665C27.7534 6.44983 27.6 6.82033 27.6 7.20667C27.6 7.593 27.7534 7.96351 28.0266 8.23669C28.2998 8.50986 28.6703 8.66333 29.0566 8.66333H37.7966V5.75Z" fill="#77A2FF"/>
</g>
<g filter="url(#filter2_d_3_15)">
<path fill-rule="evenodd" clip-rule="evenodd" d="M40.71 18.86H29.0567C28.6703 18.86 28.2998 19.0135 28.0266 19.2866C27.7535 19.5598 27.6 19.9303 27.6 20.3167C27.6 20.703 27.7535 21.0735 28.0266 21.3467C28.2998 21.6198 28.6703 21.7733 29.0567 21.7733H40.71V18.86ZM5.75 18.86H17.4033C17.7897 18.86 18.1602 19.0135 18.4334 19.2866C18.7065 19.5598 18.86 19.9303 18.86 20.3167C18.86 20.703 18.7065 21.0735 18.4334 21.3467C18.1602 21.6198 17.7897 21.7733 17.4033 21.7733H5.75V18.86Z" fill="white"/>
</g>
<g filter="url(#filter3_d_3_15)">
<path fill-rule="evenodd" clip-rule="evenodd" d="M8.66333 5.75V20.3167C8.66333 20.703 8.50986 21.0735 8.23669 21.3467C7.96351 21.6199 7.593 21.7733 7.20667 21.7733C6.82033 21.7733 6.44983 21.6199 6.17665 21.3467C5.90347 21.0735 5.75 20.703 5.75 20.3167V8.66333C5.75 7.05333 7.05333 5.75 8.66333 5.75Z" fill="white"/>
</g>
<g filter="url(#filter4_d_3_15)">
<path fill-rule="evenodd" clip-rule="evenodd" d="M8.66333 5.75H17.4033C17.7897 5.75 18.1602 5.90347 18.4333 6.17665C18.7065 6.44983 18.86 6.82033 18.86 7.20667C18.86 7.593 18.7065 7.96351 18.4333 8.23669C18.1602 8.50986 17.7897 8.66333 17.4033 8.66333H8.66333V5.75Z" fill="#77A2FF"/>
</g>
<g filter="url(#filter5_d_3_15)">
<path fill-rule="evenodd" clip-rule="evenodd" d="M37.4325 24.6866V40.5279C37.4325 40.9625 37.6051 41.3793 37.9125 41.6867C38.2198 41.994 38.6366 42.1666 39.0712 42.1666C39.5059 42.1666 39.9227 41.994 40.23 41.6867C40.5373 41.3793 40.71 40.9625 40.71 40.5279V27.9641C40.71 27.5337 40.6252 27.1075 40.4605 26.7099C40.2958 26.3123 40.0544 25.9509 39.75 25.6466C39.4457 25.3423 39.0844 25.1008 38.6867 24.9361C38.2891 24.7714 37.8629 24.6866 37.4325 24.6866Z" fill="white"/>
</g>
<g filter="url(#filter6_d_3_15)">
<path fill-rule="evenodd" clip-rule="evenodd" d="M37.4325 24.6867H29.1909C28.9756 24.6761 28.7605 24.7094 28.5585 24.7844C28.3566 24.8595 28.1719 24.9748 28.0159 25.1234C27.8598 25.272 27.7355 25.4508 27.6506 25.6488C27.5658 25.8469 27.522 26.0601 27.522 26.2756C27.522 26.4911 27.5658 26.7043 27.6506 26.9024C27.7355 27.1004 27.8598 27.2792 28.0159 27.4277C28.1719 27.5763 28.3566 27.6917 28.5585 27.7667C28.7605 27.8418 28.9756 27.8751 29.1909 27.8645H37.4325V24.6867Z" fill="#77A2FF"/>
</g>
<g filter="url(#filter7_d_3_15)">
<path fill-rule="evenodd" clip-rule="evenodd" d="M9.0275 24.6866V40.5279C9.0275 40.9625 8.85485 41.3793 8.54752 41.6867C8.2402 41.994 7.82337 42.1666 7.38875 42.1666C6.95413 42.1666 6.5373 41.994 6.22998 41.6867C5.92265 41.3793 5.75 40.9625 5.75 40.5279V27.9641C5.75 26.1548 7.21817 24.6866 9.0275 24.6866Z" fill="white"/>
</g>
<g filter="url(#filter8_d_3_15)">
<path fill-rule="evenodd" clip-rule="evenodd" d="M9.02747 24.6867H17.2691C17.4844 24.6761 17.6995 24.7094 17.9015 24.7844C18.1035 24.8595 18.2881 24.9748 18.4441 25.1234C18.6002 25.272 18.7245 25.4508 18.8094 25.6488C18.8943 25.8469 18.938 26.0601 18.938 26.2756C18.938 26.4911 18.8943 26.7043 18.8094 26.9024C18.7245 27.1004 18.6002 27.2792 18.4441 27.4277C18.2881 27.5763 18.1035 27.6917 17.9015 27.7667C17.6995 27.8418 17.4844 27.8751 17.2691 27.8645H9.02747V24.6867Z" fill="#77A2FF"/>
</g>
<g filter="url(#filter9_d_3_15)">
<path fill-rule="evenodd" clip-rule="evenodd" d="M31.97 15.364H25.5607V21.7733H22.356V15.364H15.9467V12.1593H22.356V5.75H25.5607V12.1593H31.97V15.364ZM29.6968 32.6102C29.8998 32.4073 30.1408 32.2464 30.406 32.1367C30.6711 32.0269 30.9553 31.9705 31.2423 31.9706C31.5293 31.9706 31.8135 32.0273 32.0786 32.1372C32.3437 32.2471 32.5846 32.4081 32.7874 32.6111C32.9903 32.8141 33.1512 33.0551 33.261 33.3203C33.3707 33.5854 33.4271 33.8696 33.4271 34.1566C33.427 34.4436 33.3704 34.7278 33.2604 34.9929C33.1505 35.258 32.9895 35.4989 32.7865 35.7018C32.3765 36.1115 31.8206 36.3415 31.241 36.3414C30.6614 36.3412 30.1056 36.1108 29.6959 35.7008C29.2861 35.2908 29.0561 34.7349 29.0563 34.1553C29.0564 33.5757 29.2869 33.0199 29.6968 32.6102ZM21.6852 35.6998C21.4823 35.4968 21.3214 35.2559 21.2116 34.9907C21.1019 34.7255 21.0455 34.4413 21.0455 34.1543C21.0456 33.8673 21.1022 33.5832 21.2122 33.3181C21.3221 33.0529 21.4831 32.8121 21.6861 32.6092C21.8891 32.4063 22.1301 32.2454 22.3953 32.1357C22.6604 32.0259 22.9446 31.9695 23.2316 31.9696C23.5186 31.9697 23.8028 32.0263 24.0679 32.1362C24.333 32.2461 24.5739 32.4072 24.7767 32.6102C25.1865 33.0201 25.4165 33.5761 25.4163 34.1557C25.4162 34.7353 25.1858 35.2911 24.7758 35.7008C24.3658 36.1105 23.8099 36.3406 23.2303 36.3404C22.6507 36.3402 22.0949 36.1098 21.6852 35.6998Z" fill="white"/>
</g>
<g filter="url(#filter10_d_3_15)">
<path fill-rule="evenodd" clip-rule="evenodd" d="M21.6851 28.4165C21.2754 28.0065 21.0454 27.4506 21.0455 26.871C21.0457 26.2914 21.2761 25.7356 21.6861 25.3259C22.0961 24.9162 22.652 24.6861 23.2316 24.6863C23.8112 24.6865 24.367 24.9169 24.7767 25.3268C25.1864 25.7368 25.4165 26.2928 25.4163 26.8724C25.4162 27.452 25.1857 28.0078 24.7758 28.4175C24.3658 28.8272 23.8099 29.0573 23.2303 29.0571C22.6507 29.0569 22.0949 28.8265 21.6851 28.4165Z" fill="#77A2FF"/>
</g>
<g filter="url(#filter11_d_3_15)">
<path fill-rule="evenodd" clip-rule="evenodd" d="M13.6735 35.6998C13.4707 35.4968 13.3098 35.2559 13.2 34.9907C13.0903 34.7255 13.0338 34.4413 13.0339 34.1543C13.034 33.8673 13.0906 33.5832 13.2005 33.3181C13.3105 33.053 13.4715 32.8121 13.6745 32.6092C13.8775 32.4063 14.1185 32.2454 14.3836 32.1357C14.6488 32.026 14.933 31.9695 15.22 31.9696C15.507 31.9697 15.7912 32.0263 16.0563 32.1362C16.3214 32.2461 16.5623 32.4072 16.7651 32.6102C17.1748 33.0201 17.4049 33.5761 17.4047 34.1557C17.4046 34.7353 17.1741 35.2911 16.7642 35.7008C16.3542 36.1105 15.7983 36.3406 15.2187 36.3404C14.6391 36.3402 14.0833 36.1098 13.6735 35.6998Z" fill="white"/>
</g>
</g>
<defs>
<filter id="filter0_d_3_15" x="-2.79333" y="-0.25" width="53.5033" height="56.4167" filterUnits="userSpaceOnUse" color-interpolation-filters="sRGB">
<feFlood flood-opacity="0" result="BackgroundImageFix"/>
<feColorMatrix in="SourceAlpha" type="matrix" values="0 0 0 0 0 0 0 0 0 0 0 0 0 0 0 0 0 0 127 0" result="hardAlpha"/>
<feOffset dy="4"/>
<feGaussianBlur stdDeviation="5"/>
<feComposite in2="hardAlpha" operator="out"/>
<feColorMatrix type="matrix" values="0 0 0 0 0.568609 0 0 0 0 0.539279 0 0 0 0 0.539279 0 0 0 0.6 0"/>
<feBlend mode="normal" in2="BackgroundImageFix" result="effect1_dropShadow_3_15"/>
<feBlend mode="normal" in="SourceGraphic" in2="effect1_dropShadow_3_15" result="shape"/>
</filter>
<filter id="filter1_d_3_15" x="17.6" y="-0.25" width="30.1967" height="22.9133" filterUnits="userSpaceOnUse" color-interpolation-filters="sRGB">
<feFlood flood-opacity="0" result="BackgroundImageFix"/>
<feColorMatrix in="SourceAlpha" type="matrix" values="0 0 0 0 0 0 0 0 0 0 0 0 0 0 0 0 0 0 127 0" result="hardAlpha"/>
<feOffset dy="4"/>
<feGaussianBlur stdDeviation="5"/>
<feComposite in2="hardAlpha" operator="out"/>
<feColorMatrix type="matrix" values="0 0 0 0 0.568609 0 0 0 0 0.539279 0 0 0 0 0.539279 0 0 0 0.6 0"/>
<feBlend mode="normal" in2="BackgroundImageFix" result="effect1_dropShadow_3_15"/>
<feBlend mode="normal" in="SourceGraphic" in2="effect1_dropShadow_3_15" result="shape"/>
</filter>
<filter id="filter2_d_3_15" x="-4.25" y="12.86" width="54.96" height="22.9133" filterUnits="userSpaceOnUse" color-interpolation-filters="sRGB">
<feFlood flood-opacity="0" result="BackgroundImageFix"/>
<feColorMatrix in="SourceAlpha" type="matrix" values="0 0 0 0 0 0 0 0 0 0 0 0 0 0 0 0 0 0 127 0" result="hardAlpha"/>
<feOffset dy="4"/>
<feGaussianBlur stdDeviation="5"/>
<feComposite in2="hardAlpha" operator="out"/>
<feColorMatrix type="matrix" values="0 0 0 0 0.568609 0 0 0 0 0.539279 0 0 0 0 0.539279 0 0 0 0.6 0"/>
<feBlend mode="normal" in2="BackgroundImageFix" result="effect1_dropShadow_3_15"/>
<feBlend mode="normal" in="SourceGraphic" in2="effect1_dropShadow_3_15" result="shape"/>
</filter>
<filter id="filter3_d_3_15" x="-4.25" y="-0.25" width="22.9133" height="36.0233" filterUnits="userSpaceOnUse" color-interpolation-filters="sRGB">
<feFlood flood-opacity="0" result="BackgroundImageFix"/>
<feColorMatrix in="SourceAlpha" type="matrix" values="0 0 0 0 0 0 0 0 0 0 0 0 0 0 0 0 0 0 127 0" result="hardAlpha"/>
<feOffset dy="4"/>
<feGaussianBlur stdDeviation="5"/>
<feComposite in2="hardAlpha" operator="out"/>
<feColorMatrix type="matrix" values="0 0 0 0 0.568609 0 0 0 0 0.539279 0 0 0 0 0.539279 0 0 0 0.6 0"/>
<feBlend mode="normal" in2="BackgroundImageFix" result="effect1_dropShadow_3_15"/>
<feBlend mode="normal" in="SourceGraphic" in2="effect1_dropShadow_3_15" result="shape"/>
</filter>
<filter id="filter4_d_3_15" x="-1.33667" y="-0.25" width="30.1967" height="22.9133" filterUnits="userSpaceOnUse" color-interpolation-filters="sRGB">
<feFlood flood-opacity="0" result="BackgroundImageFix"/>
<feColorMatrix in="SourceAlpha" type="matrix" values="0 0 0 0 0 0 0 0 0 0 0 0 0 0 0 0 0 0 127 0" result="hardAlpha"/>
<feOffset dy="4"/>
<feGaussianBlur stdDeviation="5"/>
<feComposite in2="hardAlpha" operator="out"/>
<feColorMatrix type="matrix" values="0 0 0 0 0.568609 0 0 0 0 0.539279 0 0 0 0 0.539279 0 0 0 0.6 0"/>
<feBlend mode="normal" in2="BackgroundImageFix" result="effect1_dropShadow_3_15"/>
<feBlend mode="normal" in="SourceGraphic" in2="effect1_dropShadow_3_15" result="shape"/>
</filter>
<filter id="filter5_d_3_15" x="27.4325" y="18.6866" width="23.2775" height="37.48" filterUnits="userSpaceOnUse" color-interpolation-filters="sRGB">
<feFlood flood-opacity="0" result="BackgroundImageFix"/>
<feColorMatrix in="SourceAlpha" type="matrix" values="0 0 0 0 0 0 0 0 0 0 0 0 0 0 0 0 0 0 127 0" result="hardAlpha"/>
<feOffset dy="4"/>
<feGaussianBlur stdDeviation="5"/>
<feComposite in2="hardAlpha" operator="out"/>
<feColorMatrix type="matrix" values="0 0 0 0 0.568609 0 0 0 0 0.539279 0 0 0 0 0.539279 0 0 0 0.6 0"/>
<feBlend mode="normal" in2="BackgroundImageFix" result="effect1_dropShadow_3_15"/>
<feBlend mode="normal" in="SourceGraphic" in2="effect1_dropShadow_3_15" result="shape"/>
</filter>
<filter id="filter6_d_3_15" x="17.522" y="18.6848" width="29.9105" height="23.1816" filterUnits="userSpaceOnUse" color-interpolation-filters="sRGB">
<feFlood flood-opacity="0" result="BackgroundImageFix"/>
<feColorMatrix in="SourceAlpha" type="matrix" values="0 0 0 0 0 0 0 0 0 0 0 0 0 0 0 0 0 0 127 0" result="hardAlpha"/>
<feOffset dy="4"/>
<feGaussianBlur stdDeviation="5"/>
<feComposite in2="hardAlpha" operator="out"/>
<feColorMatrix type="matrix" values="0 0 0 0 0.568609 0 0 0 0 0.539279 0 0 0 0 0.539279 0 0 0 0.6 0"/>
<feBlend mode="normal" in2="BackgroundImageFix" result="effect1_dropShadow_3_15"/>
<feBlend mode="normal" in="SourceGraphic" in2="effect1_dropShadow_3_15" result="shape"/>
</filter>
<filter id="filter7_d_3_15" x="-4.25" y="18.6866" width="23.2775" height="37.48" filterUnits="userSpaceOnUse" color-interpolation-filters="sRGB">
<feFlood flood-opacity="0" result="BackgroundImageFix"/>
<feColorMatrix in="SourceAlpha" type="matrix" values="0 0 0 0 0 0 0 0 0 0 0 0 0 0 0 0 0 0 127 0" result="hardAlpha"/>
<feOffset dy="4"/>
<feGaussianBlur stdDeviation="5"/>
<feComposite in2="hardAlpha" operator="out"/>
<feColorMatrix type="matrix" values="0 0 0 0 0.568609 0 0 0 0 0.539279 0 0 0 0 0.539279 0 0 0 0.6 0"/>
<feBlend mode="normal" in2="BackgroundImageFix" result="effect1_dropShadow_3_15"/>
<feBlend mode="normal" in="SourceGraphic" in2="effect1_dropShadow_3_15" result="shape"/>
</filter>
<filter id="filter8_d_3_15" x="-0.972534" y="18.6848" width="29.9105" height="23.1816" filterUnits="userSpaceOnUse" color-interpolation-filters="sRGB">
<feFlood flood-opacity="0" result="BackgroundImageFix"/>
<feColorMatrix in="SourceAlpha" type="matrix" values="0 0 0 0 0 0 0 0 0 0 0 0 0 0 0 0 0 0 127 0" result="hardAlpha"/>
<feOffset dy="4"/>
<feGaussianBlur stdDeviation="5"/>
<feComposite in2="hardAlpha" operator="out"/>
<feColorMatrix type="matrix" values="0 0 0 0 0.568609 0 0 0 0 0.539279 0 0 0 0 0.539279 0 0 0 0.6 0"/>
<feBlend mode="normal" in2="BackgroundImageFix" result="effect1_dropShadow_3_15"/>
<feBlend mode="normal" in="SourceGraphic" in2="effect1_dropShadow_3_15" result="shape"/>
</filter>
<filter id="filter9_d_3_15" x="5.94666" y="-0.25" width="37.4803" height="50.5914" filterUnits="userSpaceOnUse" color-interpolation-filters="sRGB">
<feFlood flood-opacity="0" result="BackgroundImageFix"/>
<feColorMatrix in="SourceAlpha" type="matrix" values="0 0 0 0 0 0 0 0 0 0 0 0 0 0 0 0 0 0 127 0" result="hardAlpha"/>
<feOffset dy="4"/>
<feGaussianBlur stdDeviation="5"/>
<feComposite in2="hardAlpha" operator="out"/>
<feColorMatrix type="matrix" values="0 0 0 0 0.568609 0 0 0 0 0.539279 0 0 0 0 0.539279 0 0 0 0.6 0"/>
<feBlend mode="normal" in2="BackgroundImageFix" result="effect1_dropShadow_3_15"/>
<feBlend mode="normal" in="SourceGraphic" in2="effect1_dropShadow_3_15" result="shape"/>
</filter>
<filter id="filter10_d_3_15" x="11.0455" y="18.6863" width="24.3708" height="24.3708" filterUnits="userSpaceOnUse" color-interpolation-filters="sRGB">
<feFlood flood-opacity="0" result="BackgroundImageFix"/>
<feColorMatrix in="SourceAlpha" type="matrix" values="0 0 0 0 0 0 0 0 0 0 0 0 0 0 0 0 0 0 127 0" result="hardAlpha"/>
<feOffset dy="4"/>
<feGaussianBlur stdDeviation="5"/>
<feComposite in2="hardAlpha" operator="out"/>
<feColorMatrix type="matrix" values="0 0 0 0 0.568609 0 0 0 0 0.539279 0 0 0 0 0.539279 0 0 0 0.6 0"/>
<feBlend mode="normal" in2="BackgroundImageFix" result="effect1_dropShadow_3_15"/>
<feBlend mode="normal" in="SourceGraphic" in2="effect1_dropShadow_3_15" result="shape"/>
</filter>
<filter id="filter11_d_3_15" x="3.03394" y="25.9696" width="24.3708" height="24.3708" filterUnits="userSpaceOnUse" color-interpolation-filters="sRGB">
<feFlood flood-opacity="0" result="BackgroundImageFix"/>
<feColorMatrix in="SourceAlpha" type="matrix" values="0 0 0 0 0 0 0 0 0 0 0 0 0 0 0 0 0 0 127 0" result="hardAlpha"/>
<feOffset dy="4"/>
<feGaussianBlur stdDeviation="5"/>
<feComposite in2="hardAlpha" operator="out"/>
<feColorMatrix type="matrix" values="0 0 0 0 0.568609 0 0 0 0 0.539279 0 0 0 0 0.539279 0 0 0 0.6 0"/>
<feBlend mode="normal" in2="BackgroundImageFix" result="effect1_dropShadow_3_15"/>
<feBlend mode="normal" in="SourceGraphic" in2="effect1_dropShadow_3_15" result="shape"/>
</filter>
<clipPath id="clip0_3_15">
<rect width="46" height="46" fill="white"/>
</clipPath>
</defs>
</svg>
